<!DOCTYPE svg PUBLIC "-//W3C//DTD SVG 1.1//EN" "http://www.w3.org/Graphics/SVG/1.1/DTD/svg11.dtd">
<!-- Uploaded to: SVG Repo, www.svgrepo.com, Transformed by: SVG Repo Mixer Tools -->
<svg width="256px" height="256px" viewBox="-3.63 -3.63 27.44 27.44" xmlns="http://www.w3.org/2000/svg" fill="#000000">
<g id="SVGRepo_bgCarrier" stroke-width="0" transform="translate(0,0), scale(1)">
<path transform="translate(-3.63, -3.63), scale(1.715)" fill="#7ed0ec" d="M9.166.33a2.25 2.25 0 00-2.332 0l-5.25 3.182A2.25 2.25 0 00.5 5.436v5.128a2.25 2.25 0 001.084 1.924l5.25 3.182a2.25 2.25 0 002.332 0l5.25-3.182a2.25 2.25 0 001.084-1.924V5.436a2.25 2.25 0 00-1.084-1.924L9.166.33z" strokewidth="0"/>
</g>
<g id="SVGRepo_tracerCarrier" stroke-linecap="round" stroke-linejoin="round" stroke="#ffc107" stroke-width="4.0368"> <g id="add-user-circle" transform="translate(-1.982 -1.979)"> <path id="secondary" fill="#ffc107" d="M7,19.5a9,9,0,0,0,9.94,0A5,5,0,0,0,7,19.5Z"/> <path id="primary" d="M13,7.13A3.66,3.66,0,0,0,12,7a4,4,0,1,0,3.46,6" fill="none" stroke="#273469" stroke-linecap="round" stroke-linejoin="round" stroke-width="1.6147200000000002"/> <path id="primary-2" data-name="primary" d="M12,15a5,5,0,0,0-5,4.5,9,9,0,0,0,9.94,0A5,5,0,0,0,12,15Zm5-6h4M19,7v4" fill="none" stroke="#273469" stroke-linecap="round" stroke-linejoin="round" stroke-width="1.6147200000000002"/> <path id="primary-3" data-name="primary" d="M20.48,15a8.86,8.86,0,0,1-2.12,3.36A9,9,0,1,1,16,3.94" fill="none" stroke="#273469" stroke-linecap="round" stroke-linejoin="round" stroke-width="1.6147200000000002"/> </g> </g>
<g id="SVGRepo_iconCarrier"> <g id="add-user-circle" transform="translate(-1.982 -1.979)"> <path id="secondary" fill="#ffc107" d="M7,19.5a9,9,0,0,0,9.94,0A5,5,0,0,0,7,19.5Z"/> <path id="primary" d="M13,7.13A3.66,3.66,0,0,0,12,7a4,4,0,1,0,3.46,6" fill="none" stroke="#273469" stroke-linecap="round" stroke-linejoin="round" stroke-width="1.6147200000000002"/> <path id="primary-2" data-name="primary" d="M12,15a5,5,0,0,0-5,4.5,9,9,0,0,0,9.94,0A5,5,0,0,0,12,15Zm5-6h4M19,7v4" fill="none" stroke="#273469" stroke-linecap="round" stroke-linejoin="round" stroke-width="1.6147200000000002"/> <path id="primary-3" data-name="primary" d="M20.48,15a8.86,8.86,0,0,1-2.12,3.36A9,9,0,1,1,16,3.94" fill="none" stroke="#273469" stroke-linecap="round" stroke-linejoin="round" stroke-width="1.6147200000000002"/> </g> </g>
</svg>