<!DOCTYPE svg PUBLIC "-//W3C//DTD SVG 1.1//EN" "http://www.w3.org/Graphics/SVG/1.1/DTD/svg11.dtd">
<!-- Uploaded to: SVG Repo, www.svgrepo.com, Transformed by: SVG Repo Mixer Tools -->
<svg height="161px" width="161px" version="1.1" id="Layer_1" xmlns="http://www.w3.org/2000/svg" xmlns:xlink="http://www.w3.org/1999/xlink" viewBox="-51.2 -51.2 614.40 614.40" xml:space="preserve" fill="#000000">
<g id="SVGRepo_bgCarrier" stroke-width="0" transform="translate(0,0), scale(1)">
<path transform="translate(-51.2, -51.2), scale(38.4)" fill="#7ed0ec" d="M9.166.33a2.25 2.25 0 00-2.332 0l-5.25 3.182A2.25 2.25 0 00.5 5.436v5.128a2.25 2.25 0 001.084 1.924l5.25 3.182a2.25 2.25 0 002.332 0l5.25-3.182a2.25 2.25 0 001.084-1.924V5.436a2.25 2.25 0 00-1.084-1.924L9.166.33z" strokewidth="0"/>
</g>
<g id="SVGRepo_tracerCarrier" stroke-linecap="round" stroke-linejoin="round" stroke="#ffc107" stroke-width="23.55223"> <g> <circle style="fill:#ffc107;" cx="136.483" cy="54.936" r="54.936"/> <path style="fill:#ffc107;" d="M231.251,231.656c0,0,0,2.568,0-48.624s-55.872-52.128-55.872-52.128H97.603 c0,0-55.872,0.624-55.872,52.128c0,51.192,0,48.624,0,48.624H231.251z"/> </g> <g> <circle style="fill:#1C274C;" cx="375.515" cy="54.936" r="54.936"/> <path style="fill:#1C274C;" d="M470.275,231.656c0,0,0,2.568,0-48.624s-55.872-52.128-55.872-52.128h-77.776 c0,0-55.872,0.624-55.872,52.128c0,51.192,0,48.624,0,48.624H470.275z"/> <circle style="fill:#1C274C;" cx="136.483" cy="335.256" r="54.936"/> <path style="fill:#1C274C;" d="M231.251,511.976c0,0,0,2.568,0-48.624s-55.872-52.128-55.872-52.128H97.603 c0,0-55.872,0.624-55.872,52.128c0,51.192,0,48.624,0,48.624H231.251z"/> <circle style="fill:#1C274C;" cx="375.515" cy="335.256" r="54.936"/> <path style="fill:#1C274C;" d="M470.275,511.976c0,0,0,2.568,0-48.624s-55.872-52.12-55.872-52.12h-77.776 c0,0-55.872,0.624-55.872,52.128c0,51.192,0,48.624,0,48.624h189.52V511.976z"/> </g> </g>
<g id="SVGRepo_iconCarrier"> <g> <circle style="fill:#ffc107;" cx="136.483" cy="54.936" r="54.936"/> <path style="fill:#ffc107;" d="M231.251,231.656c0,0,0,2.568,0-48.624s-55.872-52.128-55.872-52.128H97.603 c0,0-55.872,0.624-55.872,52.128c0,51.192,0,48.624,0,48.624H231.251z"/> </g> <g> <circle style="fill:#1C274C;" cx="375.515" cy="54.936" r="54.936"/> <path style="fill:#1C274C;" d="M470.275,231.656c0,0,0,2.568,0-48.624s-55.872-52.128-55.872-52.128h-77.776 c0,0-55.872,0.624-55.872,52.128c0,51.192,0,48.624,0,48.624H470.275z"/> <circle style="fill:#1C274C;" cx="136.483" cy="335.256" r="54.936"/> <path style="fill:#1C274C;" d="M231.251,511.976c0,0,0,2.568,0-48.624s-55.872-52.128-55.872-52.128H97.603 c0,0-55.872,0.624-55.872,52.128c0,51.192,0,48.624,0,48.624H231.251z"/> <circle style="fill:#1C274C;" cx="375.515" cy="335.256" r="54.936"/> <path style="fill:#1C274C;" d="M470.275,511.976c0,0,0,2.568,0-48.624s-55.872-52.12-55.872-52.12h-77.776 c0,0-55.872,0.624-55.872,52.128c0,51.192,0,48.624,0,48.624h189.52V511.976z"/> </g> </g>
</svg>