<!DOCTYPE svg PUBLIC "-//W3C//DTD SVG 1.1//EN" "http://www.w3.org/Graphics/SVG/1.1/DTD/svg11.dtd">
<!-- Uploaded to: SVG Repo, www.svgrepo.com, Transformed by: SVG Repo Mixer Tools -->
<svg version="1.1" id="Layer_1" xmlns="http://www.w3.org/2000/svg" xmlns:xlink="http://www.w3.org/1999/xlink" viewBox="-49.6 -49.6 595.20 595.20" xml:space="preserve" width="800px" height="800px" fill="#000000">
<g id="SVGRepo_bgCarrier" stroke-width="0">
<path transform="translate(-49.6, -49.6), scale(37.2)" fill="#7ed0ec" d="M9.166.33a2.25 2.25 0 00-2.332 0l-5.25 3.182A2.25 2.25 0 00.5 5.436v5.128a2.25 2.25 0 001.084 1.924l5.25 3.182a2.25 2.25 0 002.332 0l5.25-3.182a2.25 2.25 0 001.084-1.924V5.436a2.25 2.25 0 00-1.084-1.924L9.166.33z" strokewidth="0"/>
</g>
<g id="SVGRepo_tracerCarrier" stroke-linecap="round" stroke-linejoin="round"/>
<g id="SVGRepo_iconCarrier"> <path style="fill:#f5c211;" d="M416,462.4c0,19.2-12.8,33.6-32.8,33.6H112.8c-20,0-32.8-14.4-32.8-33.6V52.8 C80,33.6,92.8,16,112.8,16h269.6c20.8,0,33.6,17.6,33.6,36.8V462.4z"/> <path style="fill:#e5a50a;" d="M80,52.8C80,33.6,92.8,16,112.8,16h269.6c20.8,0,33.6,17.6,33.6,36.8v409.6 c0,19.2-14.4,33.6-35.2,33.6"/> <path style="fill:#DDDDDD;" d="M320,36c0,3.2-4.8,4-8,4H184c-3.2,0-8-0.8-8-4V4.8c0-2.4,4.8-4.8,8-4.8h128c3.2,0,8,2.4,8,4.8V36z"/> <rect x="128" y="72" style="fill:#EAEAEA;" width="240" height="376"/> <polyline style="fill:#DDDDDD;" points="128,72 368,72 368,448 "/> <rect x="160" y="104" style="fill:#40406B;" width="56" height="56"/> <g> <rect x="152" y="184" style="fill:#40406B;" width="192" height="16"/> <rect x="152" y="232" style="fill:#40406B;" width="192" height="16"/> <rect x="152" y="280" style="fill:#40406B;" width="192" height="16"/> <rect x="152" y="328" style="fill:#40406B;" width="192" height="16"/> <rect x="152" y="376" style="fill:#40406B;" width="88" height="16"/> </g> <polygon style="fill:#F15249;" points="344,376 320,376 320,360 296,360 296,376 272,376 272,400 296,400 296,424 320,424 320,400 344,400 "/> <rect x="248" y="112" style="fill:#E88610;" width="96" height="32"/> </g>
</svg>