<?xml version="1.0" encoding="UTF-8" standalone="no"?>
<!-- Uploaded to: SVG Repo, www.svgrepo.com, Transformed by: SVG Repo Mixer Tools -->

<svg 
   width="600px"
   height="600px"
   viewBox="-6.4 -6.4 76.80 76.80"
   fill="#000000"
   transform="rotate(0)"
   stroke="#000000"
   stroke-width="0.00064"
   version="1.1"
   id="svg14"
   sodipodi:docname="hospital-files-svgrepo-com(4).svg"
   inkscape:version="1.2.2 (b0a8486541, 2022-12-01)"
   xmlns:inkscape="http://www.inkscape.org/namespaces/inkscape"
   xmlns:sodipodi="http://sodipodi.sourceforge.net/DTD/sodipodi-0.dtd"
   xmlns="http://www.w3.org/2000/svg"
   xmlns:svg="http://www.w3.org/2000/svg">
  <defs
     id="defs18" />
  <sodipodi:namedview
     id="namedview16"
     pagecolor="#ffffff"
     bordercolor="#666666"
     borderopacity="1.0"
     inkscape:showpageshadow="2"
     inkscape:pageopacity="0.0"
     inkscape:pagecheckerboard="0"
     inkscape:deskcolor="#d1d1d1"
     showgrid="false"
     inkscape:zoom="1.0325"
     inkscape:cx="214.52785"
     inkscape:cy="400.48426"
     inkscape:window-width="1920"
     inkscape:window-height="1043"
     inkscape:window-x="1920"
     inkscape:window-y="0"
     inkscape:window-maximized="1"
     inkscape:current-layer="XMLID_1_" />
  <g
     id="SVGRepo_bgCarrier"
     stroke-width="0" />
  <g
     id="SVGRepo_tracerCarrier"
     stroke-linecap="round"
     stroke-linejoin="round"
     stroke="#CCCCCC"
     stroke-width="0.256" />
  <g
     id="SVGRepo_iconCarrier">
    <g
       id="XMLID_1_"
       transform="translate(-52.725,-50.435)">
      <path
         id="Path_58"
         data-name="Path 58"
         d="m 116.725,76 v 36.08 a 2,2 0 0 1 -2,2 h -60 a 2.006,2.006 0 0 1 -2,-2 V 68.755 a 2,2 0 0 1 2,-2 h 1.67 v -7.59 a 2.006,2.006 0 0 1 2,-2 h 2 v -4.73 a 2.006,2.006 0 0 1 2,-2 h 49.03 a 2.006,2.006 0 0 1 2,2 V 74 h 1.3 a 1.993,1.993 0 0 1 2,2 z m -4,34.08 V 78 H 78.4 a 2.041,2.041 0 0 1 -1.38,-0.55 l -7.09,-6.7 H 56.725 v 39.33 z M 109.425,74 V 54.435 H 64.4 v 2.73 h 40.03 a 2.006,2.006 0 0 1 2,2 V 74 Z m -7,0 V 61.165 H 60.4 v 5.59 h 10.33 a 2.013,2.013 0 0 1 1.38,0.54 L 79.2,74 Z"
         fill="#273469" />
      <path
         id="Path_59"
         data-name="Path 59"
         d="m 112.725,78 v 32.08 h -56 V 70.755 h 13.21 l 7.09,6.7 A 2.041,2.041 0 0 0 78.4,78 Z m -15,15.83 a 13,13 0 1 0 -13,13 13.012,13.012 0 0 0 13,-12.995 z"
         fill="#cccccc"
         style="opacity:0.38232601" />
      <path
         id="Path_60"
         data-name="Path 60"
         d="m 109.425,54.435 v 19.57 h -3 v -14.84 a 2.006,2.006 0 0 0 -2,-2 H 64.4 v -2.73 h 45.03 z"
         fill="#ffc107" />
      <path
         id="Path_61"
         data-name="Path 61"
         d="m 102.425,61.165 v 12.84 H 79.2 l -7.09,-6.71 a 2.013,2.013 0 0 0 -1.38,-0.54 H 60.4 v -5.59 h 42.03 z"
         fill="#f2f2f2"
         style="fill:#ffc107;fill-opacity:1" />
      <path
         id="Path_62"
         data-name="Path 62"
         d="m 84.725,80.835 a 13,13 0 1 1 -13,13 13.012,13.012 0 0 1 13,-13 z m 9,13 a 9,9 0 1 0 -9,9 9.007,9.007 0 0 0 9,-9 z"
         fill="#273469" />
      <path
         id="Path_63"
         data-name="Path 63"
         d="m 90.915,91.345 v 4.97 l -3.7,0.01 v 3.7 h -4.97 v -3.7 h -3.7 v -4.97 l 3.7,-0.01 v -3.7 h 4.97 v 3.7 z"
         fill="#ffc107" />
    </g>
  </g>
</svg>
